# xmcd
#
# Track frame offsets:
#	150
#	23465
#	37603
#	54269
#	64724
#	104688
#	117784
#	138225
#	150263
#	164577
#	179321
#	200837
#	216155
#	243724
#	256896
#
# Disc length: 3812 seconds
#
# Revision: 1
# Processed by: cddbd v1.5.1PL0 Copyright (c) Steve Scherf et al.
# Submitted via: audiograbber 1.80
#
DISCID=c60ee20f
DTITLE=Válogatás - Plextor1
DYEAR=1900
DGENRE=
TTITLE0=Ennio Morricone: Chi-mai
TTITLE1=Stromwitc: Rondo ala turca
TTITLE2=The righteous brothers: unchained melody
TTITLE3=al hirt: Green hornet
TTITLE4=Alan silvestri: Forrest gump suite
TTITLE5=Rain man soundtrack: Iko iko
TTITLE6=Sara Mclachlan: Angel
TTITLE7=Nancy sinatra: Bang bang
TTITLE8=Simon&Garfunkel: The sound of silence
TTITLE9=Fool's garden: Lemon Tree
TTITLE10=M. Almond, G. Pitney: Something's Gotten hold of my heart
TTITLE11=Luis Bacalov: The grand duel
TTITLE12=Jennifer rush: Power of love
TTITLE13=Angelo Branduardi: Temna Di Leonett
TTITLE14=Scorpions: Still Loving You
EXTD=:-)
EXTT0=
EXTT1=
EXTT2=
EXTT3=
EXTT4=
EXTT5=
EXTT6=
EXTT7=
EXTT8=
EXTT9=
EXTT10=
EXTT11=
EXTT12=
EXTT13=
EXTT14=
PLAYORDER=
